<svg width="624" height="618" viewBox="0 0 624 618" fill="none" xmlns="http://www.w3.org/2000/svg">
<g id="Home">
<g id="Group 14934">
<g id="Group 14932">
<circle id="Ellipse 579" cx="152.939" cy="464.358" r="56.1801" fill="#1DFA0F" stroke="white" stroke-width="2.0028"/>
<rect id="Rectangle 23" x="81.7402" y="313.524" width="314.997" height="113.595" rx="56.7973" transform="rotate(45 81.7402 313.524)" stroke="white" stroke-width="2.0028"/>
<rect id="Rectangle 24" x="304.476" y="393.847" width="314.997" height="113.595" rx="56.7973" transform="rotate(135 304.476 393.847)" stroke="white" stroke-width="2.0028"/>
</g>
<g id="Group 14931">
<circle id="Ellipse 578" cx="397.279" cy="148.745" r="44.5034" fill="#1DFA0F" stroke="white" stroke-width="2.0028"/>
<g id="Group 14882">
<rect id="Rectangle 20" x="352.776" y="103.75" width="250.264" height="89.9891" rx="44.9946" stroke="white" stroke-width="2.0028"/>
<rect id="Rectangle 21" x="474.998" y="1.41622" width="207.709" height="89.9891" rx="44.9946" transform="rotate(45 474.998 1.41622)" stroke="white" stroke-width="2.0028"/>
<rect id="Rectangle 22" x="411.364" y="231.528" width="207.709" height="89.9891" rx="44.9946" transform="rotate(-45 411.364 231.528)" stroke="white" stroke-width="2.0028"/>
</g>
</g>
<g id="Group 14930">
<circle id="Ellipse 586" cx="152.754" cy="148.164" r="127.656" stroke="white" stroke-width="2.0028"/>
<path id="Vector" d="M180.686 64.091C178.49 68.3116 177.45 71.9182 177.652 75.1183C177.862 78.4315 179.391 81.1673 182.023 83.5831C183.506 84.9453 185.653 86.0724 188.112 86.9757C190.586 87.8841 193.445 88.591 196.409 89.0763C202.322 90.0441 208.775 90.1508 213.584 89.1574L213.585 89.1583C218.104 88.2324 220.456 85.9496 221.579 83.2872C222.612 80.8384 222.55 78.1792 222.459 76.3302C224.501 78.674 225.51 80.9722 225.771 83.213C226.041 85.5263 225.527 87.8707 224.386 90.2462L224.382 90.254C222.898 93.4102 219.726 96.8345 214.105 98.4288L213.444 98.6163L213.382 99.3009C212.172 112.601 221.259 122.159 229.205 128.297L229.206 128.298C230.604 129.375 231.244 131.176 230.883 132.897C229.028 140.055 224.053 146.635 216.54 147.816L216.18 147.868C211.691 148.466 207.297 147.741 200.816 144.033C196.161 141.355 192.054 141.91 188.782 143.931C185.586 145.905 183.242 149.233 181.832 152.068C179.647 156.446 178.832 159.866 178.021 164.026C177.213 168.167 176.408 173.051 174.255 180.487L174.254 180.488C173.358 183.595 172.245 186.352 171.284 188.804C170.341 191.21 169.504 193.411 169.278 195.266C168.271 203.316 169.912 209.593 171.965 215.133C172.476 216.513 173.014 217.85 173.541 219.151C174.069 220.455 174.585 221.719 175.062 222.976C176.014 225.488 176.789 227.921 177.153 230.433V230.437C177.183 230.64 177.062 230.923 176.708 231.059L176.706 231.06C172.908 232.525 168.275 232.302 164.633 230.92L164.622 230.916C164.016 230.694 163.561 230.126 163.442 229.403L163.423 229.257C163.167 226.66 163.014 223.77 162.525 221.259C162.037 218.748 161.172 216.347 159.307 214.814L159.298 214.807L159.127 214.652C158.756 214.28 158.555 213.793 158.566 213.268C159.33 196.265 148.66 180.04 139.396 168.757H139.396C138.722 167.929 137.692 167.491 136.696 167.454H136.695C134.49 167.346 132.132 167.156 129.122 166.644L129.118 166.643L128.735 166.584C128.355 166.532 127.984 166.5 127.639 166.512C127.177 166.528 126.665 166.625 126.221 166.946C125.758 167.281 125.501 167.761 125.373 168.284C125.281 168.662 125.249 169.088 125.257 169.554L125.277 170.033C125.691 176.216 128.233 182.75 130.95 189.043C133.698 195.407 136.613 201.503 137.981 207.032L137.982 207.035C138.093 207.477 137.93 207.962 137.241 208.386L137.239 208.387C135.366 209.543 131.522 210.084 127.66 208.708L127.65 208.704L127.463 208.63C126.543 208.219 125.887 207.192 125.752 205.711V205.707L125.693 205.134C125.038 199.178 122.941 192.385 120.085 186.086C117.138 179.586 113.346 173.53 109.405 169.411H109.404C104.288 164.071 100.341 160.858 96.5146 158.756L96.5078 158.752L96.251 158.621C94.9722 158.009 93.7875 158.025 92.8271 158.61C91.9933 159.117 91.4928 159.957 91.2354 160.76L91.1416 161.092C89.7888 166.463 89.7652 173.122 90.3975 179.839C90.9521 185.731 92.0177 191.726 93.1768 197.035L93.6777 199.267C93.7418 199.545 93.6797 199.727 93.4688 199.932C93.2062 200.187 92.73 200.437 92.0498 200.638L92.0371 200.642C90.5583 201.098 86.8398 201.631 83.7656 200.569L83.7598 200.568C83.2264 200.387 82.8636 200.154 82.6191 199.894C82.3808 199.639 82.2107 199.312 82.1309 198.865C81.1616 193.124 82.0017 190.854 82.2295 184.488C82.3883 180.479 81.5808 177.544 80.5586 174.868C79.522 172.155 78.3703 169.924 77.6436 166.978L77.6426 166.975L77.4746 166.281C75.9904 159.954 75.2367 151.269 74.6768 143.239L74.4395 139.724C73.6851 128.176 74.915 116.921 79.6104 108.637C84.2538 100.445 92.352 95.0372 105.713 95.2247C122.083 95.457 133.172 98.2303 143.988 99.8683C154.82 101.509 165.219 101.969 179.9 97.4611L182.59 96.6359L179.982 95.5783C174.436 93.3307 170.341 87.9021 169.995 81.0538L169.974 80.3859C169.895 74.9495 171.653 71.3594 173.874 68.8839C176.026 66.4855 178.658 65.0816 180.686 64.091Z" fill="#1DFA0F" stroke="white" stroke-width="2"/>
</g>
<g id="Group 14933">
<rect id="Rectangle 34" x="365.398" y="500.143" width="244.7" height="85.2035" rx="42.6018" fill="black" stroke="white" stroke-width="2.0028"/>
<rect id="Rectangle 28" x="365.398" y="423.264" width="244.7" height="85.2035" rx="42.6018" fill="black" stroke="white" stroke-width="2.0028"/>
<rect id="Rectangle 29" x="365.398" y="344.09" width="244.7" height="85.2035" rx="42.6018" fill="black" stroke="white" stroke-width="2.0028"/>
<circle id="Ellipse 588" cx="408" cy="386.692" r="42.6018" fill="#1DFA0F" stroke="white" stroke-width="2.0028"/>
</g>
</g>
</g>
</svg>
