<svg width="20" height="20" viewBox="0 0 20 20" fill="none" xmlns="http://www.w3.org/2000/svg">
<path fill-rule="evenodd" clip-rule="evenodd" d="M5.53472 13.0277C5.14207 13.4203 5.14207 14.0569 5.53472 14.4496C5.92737 14.8422 6.56397 14.8422 6.95662 14.4496L9.98885 11.4174L13.0427 14.4712C13.4351 14.8637 14.0714 14.8637 14.4639 14.4712C14.8563 14.0788 14.8563 13.4425 14.4639 13.05L11.41 9.99617L14.4481 6.95809C14.8408 6.56544 14.8408 5.92883 14.4481 5.53618C14.0555 5.14354 13.4189 5.14354 13.0262 5.53618L9.98814 8.57427L6.95692 5.54304C6.56447 5.15059 5.92818 5.15059 5.53573 5.54304C5.14328 5.9355 5.14328 6.57179 5.53573 6.96424L8.56695 9.99546L5.53472 13.0277Z" fill="#A4A4A4"/>
</svg>
