<svg width="20" height="20" viewBox="0 0 20 20" fill="none" xmlns="http://www.w3.org/2000/svg">
<g clip-path="url(#clip0_3842_43804)">
<path d="M10 1.75C14.5563 1.75 18.25 5.44365 18.25 10C18.25 14.5563 14.5563 18.25 10 18.25C5.44365 18.25 1.75 14.5563 1.75 10C1.75 5.44365 5.44365 1.75 10 1.75ZM14.1709 6.47168C13.7874 6.14078 13.2168 6.18515 12.8857 6.57129L8.80176 11.335L7.08301 9.5127C6.73478 9.14353 6.1634 9.12671 5.7959 9.47559C5.41566 9.83658 5.3996 10.449 5.75977 10.8311L8.28418 13.5078C8.5983 13.8409 9.12252 13.8285 9.4209 13.4805L14.2695 7.8252C14.612 7.42575 14.5676 6.81405 14.1709 6.47168Z" fill="#10C504"/>
</g>
<defs>
<clipPath id="clip0_3842_43804">
<rect width="18" height="18" fill="white" transform="translate(1 1)"/>
</clipPath>
</defs>
</svg>
