<svg width="20" height="20" viewBox="0 0 20 20" fill="none" xmlns="http://www.w3.org/2000/svg">
<path d="M7.66406 3.75977L8.67969 6.19727C8.85742 6.60352 8.75586 7.08594 8.40039 7.36523L7.15625 8.40625C7.99414 10.1836 9.44141 11.6309 11.2188 12.4688L12.2598 11.2246C12.5391 10.8691 13.0215 10.7676 13.4277 10.9453L15.8652 11.9609C16.3477 12.1387 16.5762 12.6719 16.4492 13.1543L15.8398 15.3887C15.7129 15.8203 15.332 16.125 14.875 16.125C8.57812 16.125 3.5 11.0469 3.5 4.75C3.5 4.29297 3.80469 3.91211 4.23633 3.78516L6.4707 3.17578C6.95312 3.04883 7.48633 3.27734 7.66406 3.75977Z" fill="black"/>
</svg>
